<?xml version="1.0" standalone="no"?>
<!DOCTYPE svg PUBLIC "-//W3C//DTD SVG 20010904//EN"
 "http://www.w3.org/TR/2001/REC-SVG-20010904/DTD/svg10.dtd">
<svg version="1.0" xmlns="http://www.w3.org/2000/svg"
 width="260.000000pt" height="260.000000pt" viewBox="0 0 260.000000 260.000000"
 preserveAspectRatio="xMidYMid meet">
<metadata>
Created by potrace 1.14, written by Peter Selinger 2001-2017
</metadata>
<g transform="translate(0.000000,260.000000) scale(0.100000,-0.100000)"
fill="#000000" stroke="none">
<path d="M2233 2574 c-96 -19 -163 -63 -207 -133 -46 -72 -48 -96 -49 -442 0
-182 -3 -328 -7 -327 -4 2 -53 28 -109 58 -94 50 -101 56 -96 80 5 25 9 45 19
110 3 19 17 93 30 164 29 160 27 218 -8 290 -81 166 -307 223 -461 116 -86
-60 -118 -120 -143 -275 -10 -60 -22 -105 -28 -105 -6 0 -121 60 -255 133
-134 73 -251 136 -259 140 -8 4 -37 20 -65 35 -119 67 -148 81 -194 95 -149
44 -323 -39 -377 -179 -18 -47 -19 -89 -19 -1044 l0 -995 24 -48 c26 -53 87
-119 130 -141 62 -32 161 -46 231 -31 27 5 132 55 190 90 19 12 85 48 145 80
61 32 120 65 133 73 12 8 22 13 23 11 0 -2 3 -17 5 -34 8 -51 46 -117 93 -162
150 -144 410 -97 500 90 12 25 35 129 56 257 29 172 41 218 56 232 19 16 370
208 381 208 3 0 5 -137 5 -304 1 -217 4 -315 13 -342 43 -131 165 -217 305
-215 107 1 217 65 273 159 l27 47 0 1055 0 1055 -27 46 c-70 120 -202 180
-335 153z"/>
</g>
</svg>
